<?xml version="1.0" encoding="utf-8"?>
<!-- Generator: Adobe Illustrator 25.0.0, SVG Export Plug-In . SVG Version: 6.00 Build 0)  -->
<svg version="1.1" id="Layer_1" xmlns="http://www.w3.org/2000/svg" xmlns:xlink="http://www.w3.org/1999/xlink" x="0px" y="0px"
	 viewBox="0 0 394 394" style="enable-background:new 0 0 394 394;" xml:space="preserve">
<style type="text/css">
	.exchange-st0{opacity:0.17;fill:#42CE57;}
	.exchange-st1{opacity:0.17;fill:#E1B646;}
	.exchange-st2{opacity:0.17;fill:#0A9DFF;}
	.exchange-st3{fill:url(#SVGID_1_);}
	.exchange-st4{fill:#FFD438;}
	.exchange-st5{fill:#FFFFFF;}
	.exchange-st6{fill:url(#SVGID_2_);}
	.exchange-st7{opacity:0.4;fill:#A9B646;}
	.exchange-st8{fill:#63C9FF;}
	.exchange-st9{fill:url(#SVGID_3_);}
	.exchange-st10{opacity:0.44;fill:#42B5B0;}
	.exchange-st11{fill:#88EB73;}
</style>
<ellipse class="exchange-st0" cx="214.7" cy="244.4" rx="95.4" ry="67.6"/>
<ellipse class="exchange-st1" cx="232.3" cy="160.8" rx="81.6" ry="66.6"/>
<ellipse class="exchange-st2" cx="159.5" cy="211.9" rx="95.4" ry="67.6"/>
<linearGradient id="SVGID_1_" gradientUnits="userSpaceOnUse" x1="150.7085" y1="155.0078" x2="316.5336" y2="155.0078">
	<stop  offset="4.091954e-02" style="stop-color:#42CE57"/>
	<stop  offset="1" style="stop-color:#E1B646"/>
</linearGradient>
<path class="exchange-st3" d="M312.3,136.2c-11-23.5-42-40.4-78.6-40.4S166,112.7,155,136.2h-4.3V155c0,32.7,37.1,59.2,82.9,59.2
	s82.9-26.5,82.9-59.2v-18.8H312.3z"/>
<ellipse class="exchange-st4" cx="233.6" cy="134.6" rx="82.9" ry="59.2"/>
<g>
	<path class="exchange-st5" d="M213.6,163.8c-2.1,0-3.7-0.4-4.8-1.3c-1.1-0.9-1.7-1.9-1.7-3.3c0-0.8,0.2-1.4,0.5-1.9c2.1-3.5,3.7-7,4.7-10.4
		c1.1-3.4,1.7-6.7,1.7-10h-5.2c-1.8,0-3.4-0.5-4.6-1.4c-1.2-0.9-1.8-2-1.8-3.3c0-1.3,0.6-2.4,1.8-3.3c1.2-0.9,2.7-1.3,4.6-1.3h4
		c-1.2-2.3-2.3-4.2-3.1-5.8c-0.8-1.6-1.5-3.2-1.9-4.7c-0.5-1.5-0.7-3.2-0.7-5c0-3.3,1.1-6.4,3.4-9.1c2.3-2.7,5.4-4.9,9.2-6.5
		c3.8-1.6,8-2.4,12.6-2.4c4.9,0,9.4,0.7,13.4,2c4,1.3,7.4,3.3,10.2,6c0.4,0.4,0.7,0.8,0.9,1.3c0.2,0.5,0.3,1,0.3,1.5
		c0,1.3-0.6,2.4-1.8,3.3c-1.2,0.9-2.8,1.3-4.7,1.3c-1.7,0-3-0.4-3.9-1.2c-2.2-1.5-4.4-2.9-6.3-3.9c-2-1.1-4.5-1.6-7.7-1.6
		c-2.7,0-5.1,0.4-6.9,1.3c-1.9,0.9-3.3,2-4.3,3.5c-1,1.5-1.5,3.1-1.5,5c0,1.4,0.2,2.9,0.7,4.6s1.2,3.3,2.1,5c0.9,1.8,2,3.6,3.1,5.4
		h15.7c1.8,0,3.4,0.4,4.6,1.3c1.2,0.9,1.8,1.9,1.8,3.3c0,1.3-0.6,2.4-1.8,3.3c-1.2,0.9-2.7,1.4-4.6,1.4h-14.9
		c-0.1,2.9-0.4,5.7-1.1,8.7c-0.6,2.9-1.6,5.9-3.1,8.8h26.9c0.6-0.8,1.1-1.5,1.6-2.3c0.5-0.7,1-1.4,1.6-2c0.7-0.7,1.4-1.3,2.3-1.7
		c0.9-0.4,1.9-0.7,3.2-0.7c1.8,0,3.4,0.5,4.6,1.4c1.2,0.9,1.9,2,1.9,3.3c0,0.8-0.2,1.5-0.7,2.1l-4.5,6.4c-0.7,1-1.5,1.7-2.5,2.1
		s-2.1,0.7-3.4,0.7H213.6z"/>
</g>
<linearGradient id="SVGID_2_" gradientUnits="userSpaceOnUse" x1="52.8725" y1="204.0017" x2="218.6976" y2="204.0017">
	<stop  offset="0.1411" style="stop-color:#0A9DFF"/>
	<stop  offset="0.5707" style="stop-color:#42B5B0"/>
</linearGradient>
<path class="exchange-st6" d="M214.4,185.2c-11-23.5-42-40.4-78.6-40.4c-36.6,0-67.6,16.9-78.6,40.4h-4.3V204c0,32.7,37.1,59.2,82.9,59.2
	c45.8,0,82.9-26.5,82.9-59.2v-18.8H214.4z"/>
<path class="exchange-st7" d="M236.7,172.9c-14.2-14.1-38.7-23.4-66.6-23.4c-44,0-79.7,23.2-79.7,51.9c0,23.7,28.7,35.6,62.1,41.8
	c14.2,14.1,34.4,31.5,62.2,31.5c44,0,79.7-23.2,79.7-51.9C294.4,199.1,270,179.1,236.7,172.9z"/>
<ellipse class="exchange-st8" cx="135.8" cy="185.2" rx="82.9" ry="59.2"/>
<path class="exchange-st5" d="M166.2,205.6c-1.5-0.1-2.9,0.3-4.4,1c-3.5,1.8-7.1,3.3-10.9,4.3c-3.8,1-7.8,1.6-12.1,1.6
	c-4.9,0-9.5-0.7-13.9-2.1c-4.3-1.4-8.1-3.3-11.4-5.8c-3.1-2.4-5.5-5.1-7.3-8.1H141c1.7,0,3.2-0.4,4.3-1.1s1.7-1.7,1.7-2.9
	c0-1-0.6-1.9-1.7-2.6s-2.6-1.1-4.3-1.1h-37.7c-0.2-1.2-0.3-2.4-0.3-3.6c0-1.7,0.2-3.3,0.5-4.8h46.2c1.7,0,3.2-0.4,4.3-1.1
	c1.1-0.7,1.7-1.7,1.7-2.9c0-1-0.6-1.9-1.7-2.6c-1.1-0.7-2.6-1.1-4.3-1.1h-42.8c1.7-2.5,3.9-4.8,6.5-6.8c3.3-2.5,7.1-4.5,11.4-5.9
	c4.3-1.4,9-2.1,13.9-2.1c5.4,0,9.8,0.5,13.1,1.5c3.3,1,6.5,2.5,9.6,4.4c1.5,0.8,3,1.2,4.6,1.1c1.6-0.1,2.9-0.5,4.1-1.2
	c1.1-0.7,1.7-1.7,1.7-2.8c0-0.5-0.1-1-0.2-1.4c-0.1-0.4-0.4-0.8-0.7-1.2c-0.4-0.4-0.9-0.8-1.6-1.1c-4.7-2.7-9.3-4.7-13.9-5.9
	c-4.6-1.2-10.1-1.8-16.6-1.8c-6.8,0-13.2,0.9-19,2.8c-5.8,1.8-10.9,4.4-15.3,7.6c-4.4,3.2-7.8,7-10.2,11.3c-0.3,0.5-0.5,1-0.8,1.5
	H82.9c-1.7,0-3.2,0.4-4.3,1.1c-1.1,0.7-1.7,1.6-1.7,2.6c0,1.2,0.6,2.1,1.7,2.9c1.1,0.7,2.6,1.1,4.3,1.1h8c-0.3,1.6-0.4,3.2-0.4,4.8
	c0,1.2,0.1,2.4,0.2,3.6h-7.8c-1.7,0-3.2,0.4-4.3,1.1s-1.7,1.6-1.7,2.6c0,1.2,0.6,2.2,1.7,2.9s2.6,1.1,4.3,1.1h9.9
	c0.4,1,0.9,1.9,1.4,2.9c2.5,4.3,5.9,8.1,10.2,11.4c4.4,3.2,9.5,5.8,15.4,7.6c5.9,1.8,12.2,2.7,18.9,2.7c5.7,0,11.1-0.7,16.2-2
	c5.1-1.3,9.9-3.2,14.4-5.8c0.7-0.5,1.2-1,1.5-1.6c0.3-0.6,0.5-1.1,0.5-1.7c0-1.3-0.5-2.3-1.5-3.1
	C168.9,206.1,167.6,205.7,166.2,205.6z"/>
<linearGradient id="SVGID_3_" gradientUnits="userSpaceOnUse" x1="141.8755" y1="256.2504" x2="307.7007" y2="256.2504">
	<stop  offset="1.298195e-07" style="stop-color:#0A9DA0"/>
	<stop  offset="0.3124" style="stop-color:#42CE57"/>
</linearGradient>
<path class="exchange-st9" d="M303.4,237.5c-11-23.5-42-40.4-78.6-40.4c-36.6,0-67.6,16.9-78.6,40.4h-4.3v18.8c0,32.7,37.1,59.2,82.9,59.2
	c45.8,0,82.9-26.5,82.9-59.2v-18.8H303.4z"/>
<path class="exchange-st10" d="M132.3,246.6c4.7,0.6,9.5,0.9,14.4,0.9c44.3,0,80.5-24.8,82.8-56.1c-4.7-0.6-9.5-0.9-14.4-0.9
	C170.8,190.6,134.6,215.4,132.3,246.6z"/>
<ellipse class="exchange-st11" cx="224.8" cy="239.5" rx="82.9" ry="59.2"/>
<path class="exchange-st5" d="M249.3,240.3c-5-3.2-11.6-5.1-19.8-5.9V212c3.6,0.3,6.6,1,9,2.2c3.2,1.5,5.7,3.5,7.5,6c0.9,1.1,2.2,1.9,3.9,2.3
	c1.7,0.4,3.2,0.2,4.6-0.5c1.4-0.7,2.2-1.5,2.4-2.6c0.2-1.1-0.3-2.3-1.4-3.6c-1.9-2.4-4.2-4.5-6.9-6.2c-2.7-1.8-5.9-3.2-9.6-4.2
	c-2.8-0.7-6-1.2-9.6-1.4v-4.3c0-0.8-0.4-1.5-1.1-2c-0.7-0.5-1.6-0.8-2.8-0.8c-1.1,0-2,0.3-2.7,0.8c-0.7,0.5-1.1,1.2-1.1,2v4.3
	c-4.4,0.3-8.5,0.9-12.3,2.1c-5,1.5-8.9,3.5-11.9,6.2c-3,2.7-4.4,6-4.4,9.8c0,3.5,1.3,6.6,3.8,9.4c2.5,2.8,6.2,5,10.9,6.8
	c4,1.5,8.7,2.5,13.9,3.1v24.3c-4.3-0.2-8.2-0.9-11.7-2c-4.4-1.4-7.3-3.2-8.7-5.4c-0.7-1.1-1.7-1.9-3-2.5c-1.3-0.6-2.7-0.7-4.1-0.5
	c-2,0.3-3.4,1-4.2,2c-0.8,1-0.8,2.2-0.1,3.4c1.6,2.7,4.1,5.1,7.6,7.1s7.6,3.5,12.3,4.5c3.8,0.8,7.7,1.3,11.8,1.5v5.5
	c0,0.8,0.4,1.4,1.1,2c0.7,0.5,1.7,0.8,2.7,0.8c1.2,0,2.1-0.3,2.8-0.8c0.7-0.5,1.1-1.2,1.1-2v-5.6c2.5-0.2,4.9-0.6,7.3-1.1
	c3.9-0.8,7.4-2.1,10.5-3.7c3.1-1.6,5.6-3.7,7.4-6.2c1.8-2.5,2.7-5.4,2.7-8.7C257.5,248.4,254.8,243.8,249.3,240.3z M213.7,231.6
	c-3.2-1.2-5.3-2.7-6.4-4.3c-1.1-1.6-1.7-3.3-1.7-5.1c0-3.5,1.9-6.1,5.7-7.8c2.9-1.3,6.4-2.2,10.5-2.4v21.7
	C218.5,233.1,215.7,232.5,213.7,231.6z M242.2,260.6c-1.9,1.7-4.4,3-7.4,3.9c-1.7,0.5-3.4,0.8-5.2,1.1v-23.3
	c4.7,0.8,8.3,2.1,10.7,3.9c3.2,2.4,4.8,5.2,4.8,8.3C245,256.8,244.1,258.9,242.2,260.6z"/>
</svg>
